<svg xmlns="http://www.w3.org/2000/svg" viewBox="0 0 64 64"><path d="M51.403 11.841c-.01-.01-.012-.023-.021-.033-.015-.016-.035-.02-.051-.035a27.925 27.925 0 0 0-38.662 0c-.016.014-.036.02-.05.035-.01.01-.013.023-.022.033a28 28 0 1 0 38.806 0ZM18.029 31a33.69 33.69 0 0 1 2.706-12.366A27.86 27.86 0 0 0 31 20.976V31ZM36.865 6.463a25.925 25.925 0 0 1 12.31 6.04 25.98 25.98 0 0 1-4.964 3.448 31.151 31.151 0 0 0-7.346-9.488Zm5.547 10.36A25.865 25.865 0 0 1 33 18.976V6.03a28.37 28.37 0 0 1 9.412 10.793ZM31 6.03v12.946a25.865 25.865 0 0 1-9.412-2.153A28.369 28.369 0 0 1 31 6.03Zm-11.211 9.921a25.98 25.98 0 0 1-4.963-3.447 25.925 25.925 0 0 1 12.309-6.04 31.15 31.15 0 0 0-7.346 9.487ZM33 20.977a27.86 27.86 0 0 0 10.265-2.342A33.69 33.69 0 0 1 45.971 31H33ZM47.97 31a35.676 35.676 0 0 0-2.905-13.236 27.977 27.977 0 0 0 5.56-3.878A25.907 25.907 0 0 1 57.976 31ZM13.375 13.886a27.978 27.978 0 0 0 5.561 3.878A35.676 35.676 0 0 0 16.03 31H6.025a25.907 25.907 0 0 1 7.35-17.114ZM32 58A26.028 26.028 0 0 1 6.025 33h51.95A26.028 26.028 0 0 1 32 58Z"/><path d="M25.163 38.013a1.008 1.008 0 0 0-1.15.824l-.494 2.988-.623-1.256a1.041 1.041 0 0 0-1.791 0l-.624 1.256-.494-2.988a1 1 0 1 0-1.974.326l1 6.042a1 1 0 0 0 1.882.282L22 43.263l1.105 2.224a1 1 0 0 0 .895.555.955.955 0 0 0 .148-.011 1 1 0 0 0 .839-.826l1-6.042a1 1 0 0 0-.824-1.15zm10 0a1.006 1.006 0 0 0-1.15.824l-.494 2.988-.624-1.256a1.041 1.041 0 0 0-1.79 0l-.624 1.256-.494-2.988a1 1 0 1 0-1.974.326l1 6.042a1 1 0 0 0 1.882.282L32 43.263l1.105 2.224a1 1 0 0 0 .895.555.955.955 0 0 0 .148-.011 1 1 0 0 0 .839-.826l1-6.042a1 1 0 0 0-.824-1.15zm10 0a1.006 1.006 0 0 0-1.15.824l-.494 2.988-.624-1.256a1.041 1.041 0 0 0-1.79 0l-.624 1.256-.494-2.988a1 1 0 1 0-1.974.326l1 6.042a1 1 0 0 0 1.883.282L42 43.263l1.105 2.224a1 1 0 0 0 .895.555.955.955 0 0 0 .148-.011 1 1 0 0 0 .839-.826l1-6.042a1 1 0 0 0-.824-1.15z"/></svg>